<svg version="1.1" id="Layer_1" xmlns="http://www.w3.org/2000/svg" xmlns:xlink="http://www.w3.org/1999/xlink" x="0px" y="0px"
	 width="100%" viewBox="0 0 448 432" enable-background="new 0 0 448 432" xml:space="preserve">
<path fill="#000000" opacity="1.000000" stroke="none" 
	d="
M433.000000,433.000000 
	C289.000000,433.000000 145.000000,433.000000 1.000000,433.000000 
	C1.000000,290.333344 0.993632,147.666672 1.102914,5.000079 
	C1.103874,3.747448 -0.962960,0.685187 3.624222,1.311442 
	C5.340662,2.868204 6.367232,4.179021 7.534745,5.349219 
	C33.421360,31.295383 59.332039,57.217537 85.212799,83.169533 
	C88.744354,86.710808 94.429092,89.632843 88.986961,95.704163 
	C92.240089,98.038010 92.333641,93.224747 94.617065,93.930748 
	C94.747894,94.281219 95.044861,94.704536 94.941963,94.855728 
	C92.609467,98.282837 90.333565,101.755333 87.849945,105.071701 
	C55.578266,148.163849 43.961391,196.288544 55.964436,248.732941 
	C68.489296,303.457336 100.944283,343.373566 151.811798,367.661285 
	C182.674316,382.397217 215.362747,387.020569 249.095490,382.103638 
	C281.923889,377.318542 311.376068,364.351654 336.633820,342.538452 
	C339.719391,339.873718 341.615021,340.158630 344.436981,343.004059 
	C369.775146,368.552856 395.314087,393.902435 420.650513,419.452972 
	C424.941437,423.780243 429.960571,427.508789 433.000000,433.000000 
z"/>
<path fill="#000000" opacity="1.000000" stroke="none" 
	d="
M20.000000,1.000000 
	C162.928467,1.000000 305.856934,1.000000 449.000000,1.000000 
	C449.000000,144.356583 449.000000,287.713287 448.740967,431.324463 
	C417.312622,400.307709 386.143829,369.035950 354.973480,337.765747 
	C348.945404,331.718384 348.951141,331.728760 354.312775,325.492065 
	C355.397308,324.230499 356.381378,322.883026 357.424225,321.585144 
	C389.142365,282.111328 402.576813,237.375488 395.709351,186.989059 
	C390.725708,150.423889 375.566132,118.584953 349.838837,92.021790 
	C308.752533,49.600586 258.407990,32.740746 200.237610,39.741692 
	C173.099670,43.007809 148.209534,53.316570 125.706459,69.097588 
	C118.349075,74.257187 111.450043,79.971024 104.903381,85.725044 
	C102.930222,85.288284 101.958794,84.094810 100.907265,83.044899 
	C74.850601,57.028446 48.797192,31.008724 22.771370,4.961443 
	C21.638500,3.827641 20.048584,2.927805 20.000000,1.000000 
z"/>
<path fill="#000000" opacity="1.000000" stroke="none" 
	d="
M315.149902,346.250488 
	C292.915314,360.822388 269.101654,369.797668 242.874161,372.516968 
	C200.470398,376.913452 161.766159,367.256256 127.670410,341.657166 
	C91.547966,314.536469 69.952866,278.349792 63.549412,233.417084 
	C57.195171,188.829712 67.947670,148.346649 94.798912,112.629005 
	C120.362587,78.624077 154.651428,57.613464 196.819748,50.630619 
	C245.054016,42.643291 288.837341,53.740269 326.971405,84.348633 
	C359.883057,110.765266 379.464966,145.308105 385.434479,187.271973 
	C392.256287,235.227295 380.021362,277.961578 349.404022,315.299011 
	C339.680176,327.157074 328.326874,337.521210 315.149902,346.250488 
M313.048370,220.322021 
	C309.964905,213.133606 306.896942,205.938507 303.794434,198.758316 
	C298.772278,187.135315 293.815613,175.501877 285.220703,165.858414 
	C281.188141,161.333893 275.880005,158.515167 270.961395,154.779999 
	C274.160004,150.543900 277.562592,146.898285 278.991974,141.927155 
	C281.208679,134.218079 281.988586,126.279846 283.207275,118.411514 
	C283.656219,115.512878 282.042389,114.369026 279.295898,115.022636 
	C276.548035,115.676575 273.885681,116.729561 271.119019,117.257874 
	C256.479065,120.053520 241.348633,121.034241 228.211533,129.254761 
	C227.129868,129.931610 225.702591,130.125366 224.403503,130.374512 
	C214.449966,132.283356 204.422989,133.613617 194.316513,134.453690 
	C186.286545,135.121155 178.064865,136.345703 171.835968,141.721436 
	C160.178055,151.782562 146.516708,155.789566 131.661789,157.536072 
	C124.099884,158.425140 116.480156,159.782364 109.587662,163.413177 
	C104.361122,166.166412 102.485321,169.974869 104.306229,174.193481 
	C108.105072,182.994598 113.150978,191.027664 120.164146,197.620453 
	C122.551628,199.864822 124.826424,202.723953 128.737366,202.998734 
	C128.849457,202.218842 129.037781,201.724258 128.967041,201.270020 
	C128.462616,198.031036 128.247772,194.731857 131.398605,192.728592 
	C134.510925,190.749786 137.038803,193.237854 139.690918,194.457138 
	C141.548111,195.310959 143.131073,197.290909 145.554184,196.099182 
	C146.309021,188.073715 147.315948,187.164474 155.579330,185.225082 
	C160.364914,184.101959 164.834351,185.156036 169.302521,186.428925 
	C173.359222,187.584595 176.820160,189.834900 177.209152,194.409561 
	C177.631119,199.372192 173.575714,201.383255 169.913559,202.804871 
	C161.745453,205.975616 153.214539,207.229279 144.450272,205.815506 
	C142.804459,205.550018 141.204651,205.043274 139.647614,205.987839 
	C139.085632,212.141647 137.580231,213.859970 133.414246,213.218094 
	C129.609558,212.631866 127.195923,209.367126 123.337738,207.571747 
	C124.704079,216.256027 128.293793,223.029968 133.907242,228.758331 
	C136.796143,231.706345 140.434235,232.409149 144.457520,232.061050 
	C151.284210,231.470398 157.856003,229.739304 164.479874,228.119141 
	C175.571411,225.406174 186.358902,221.049255 198.098770,221.636292 
	C204.790649,221.970901 208.593781,224.794403 210.555084,231.171478 
	C212.579666,237.754196 210.896347,243.998276 208.635971,250.155731 
	C205.227188,259.441589 199.342102,266.912659 191.631699,273.421265 
	C211.693573,275.959503 228.955872,269.850037 244.163895,256.771118 
	C245.988617,258.376556 247.541519,259.859680 249.213181,261.194031 
	C257.937408,268.157867 267.698486,272.377380 279.056946,272.054840 
	C284.072449,271.912415 284.513275,271.018738 282.945648,266.373016 
	C281.593201,262.364990 279.334167,258.550293 279.603088,254.142075 
	C280.095917,254.013809 280.292236,253.891190 280.412506,253.943512 
	C281.011230,254.203934 281.624939,254.456116 282.170563,254.808502 
	C296.600006,264.128082 312.326630,264.044983 328.396393,261.065552 
	C331.305725,260.526154 334.328400,259.451508 331.451111,255.450394 
	C323.805756,244.819016 319.000854,232.696777 313.048370,220.322021 
z"/>
<path fill="#000000" opacity="1.000000" stroke="none" 
	d="
M178.665253,164.814880 
	C176.064529,162.632965 174.065598,160.493210 173.197708,157.486069 
	C191.904404,151.687119 205.504379,151.994797 210.980118,161.204803 
	C201.999695,161.906448 194.193817,166.737854 185.200623,166.468613 
	C183.019043,166.403305 180.872406,166.329041 178.665253,164.814880 
z"/>
</svg>